<?xml version="1.0" encoding="utf-8" standalone="no"?>
<!DOCTYPE svg PUBLIC "-//W3C//DTD SVG 1.1//EN"
  "http://www.w3.org/Graphics/SVG/1.1/DTD/svg11.dtd">
<svg height="692.042465pt" version="1.1" viewBox="0 0 451.976643 692.042465" width="451.976643pt" xmlns="http://www.w3.org/2000/svg" xmlns:xlink="http://www.w3.org/1999/xlink">
 <metadata>
  <rdf:RDF xmlns:cc="http://creativecommons.org/ns#" xmlns:dc="http://purl.org/dc/elements/1.1/" xmlns:rdf="http://www.w3.org/1999/02/22-rdf-syntax-ns#">
   <cc:Work>
    <dc:type rdf:resource="http://purl.org/dc/dcmitype/StillImage"/>
    <dc:date>2021-10-04T00:50:50.326115</dc:date>
    <dc:format>image/svg+xml</dc:format>
    <dc:creator>
     <cc:Agent>
      <dc:title>Matplotlib v3.4.3, https://matplotlib.org/</dc:title>
     </cc:Agent>
    </dc:creator>
   </cc:Work>
  </rdf:RDF>
 </metadata>
 <defs>
  <style type="text/css">*{stroke-linecap:butt;stroke-linejoin:round;}</style>
 </defs>
 <g id="figure_1">
  <g id="patch_1">
   <path d="M 0 692.042465 
L 451.976643 692.042465 
L 451.976643 0 
L 0 0 
z
" style="fill:none;"/>
  </g>
  <g id="axes_1">
   <g id="patch_2">
    <path d="M 26.925 668.16434 
L 438.414143 668.16434 
L 438.414143 22.318125 
L 26.925 22.318125 
z
" style="fill:#ffffff;"/>
   </g>
   <g id="matplotlib.axis_1">
    <g id="xtick_1">
     <g id="line2d_1">
      <defs>
       <path d="M 0 0 
L 0 3.5 
" id="m221df05ea0" style="stroke:#000000;stroke-width:0.8;"/>
      </defs>
      <g>
       <use style="stroke:#000000;stroke-width:0.8;" x="26.925" xlink:href="#m221df05ea0" y="668.16434"/>
      </g>
     </g>
     <g id="text_1">
      <!-- 0 -->
      <g transform="translate(23.74375 682.762778)scale(0.1 -0.1)">
       <defs>
        <path d="M 2034 4250 
Q 1547 4250 1301 3770 
Q 1056 3291 1056 2328 
Q 1056 1369 1301 889 
Q 1547 409 2034 409 
Q 2525 409 2770 889 
Q 3016 1369 3016 2328 
Q 3016 3291 2770 3770 
Q 2525 4250 2034 4250 
z
M 2034 4750 
Q 2819 4750 3233 4129 
Q 3647 3509 3647 2328 
Q 3647 1150 3233 529 
Q 2819 -91 2034 -91 
Q 1250 -91 836 529 
Q 422 1150 422 2328 
Q 422 3509 836 4129 
Q 1250 4750 2034 4750 
z
" id="DejaVuSans-30" transform="scale(0.015625)"/>
       </defs>
       <use xlink:href="#DejaVuSans-30"/>
      </g>
     </g>
    </g>
    <g id="xtick_2">
     <g id="line2d_2">
      <g>
       <use style="stroke:#000000;stroke-width:0.8;" x="78.361143" xlink:href="#m221df05ea0" y="668.16434"/>
      </g>
     </g>
     <g id="text_2">
      <!-- 5 -->
      <g transform="translate(75.179893 682.762778)scale(0.1 -0.1)">
       <defs>
        <path d="M 691 4666 
L 3169 4666 
L 3169 4134 
L 1269 4134 
L 1269 2991 
Q 1406 3038 1543 3061 
Q 1681 3084 1819 3084 
Q 2600 3084 3056 2656 
Q 3513 2228 3513 1497 
Q 3513 744 3044 326 
Q 2575 -91 1722 -91 
Q 1428 -91 1123 -41 
Q 819 9 494 109 
L 494 744 
Q 775 591 1075 516 
Q 1375 441 1709 441 
Q 2250 441 2565 725 
Q 2881 1009 2881 1497 
Q 2881 1984 2565 2268 
Q 2250 2553 1709 2553 
Q 1456 2553 1204 2497 
Q 953 2441 691 2322 
L 691 4666 
z
" id="DejaVuSans-35" transform="scale(0.015625)"/>
       </defs>
       <use xlink:href="#DejaVuSans-35"/>
      </g>
     </g>
    </g>
    <g id="xtick_3">
     <g id="line2d_3">
      <g>
       <use style="stroke:#000000;stroke-width:0.8;" x="129.797286" xlink:href="#m221df05ea0" y="668.16434"/>
      </g>
     </g>
     <g id="text_3">
      <!-- 10 -->
      <g transform="translate(123.434786 682.762778)scale(0.1 -0.1)">
       <defs>
        <path d="M 794 531 
L 1825 531 
L 1825 4091 
L 703 3866 
L 703 4441 
L 1819 4666 
L 2450 4666 
L 2450 531 
L 3481 531 
L 3481 0 
L 794 0 
L 794 531 
z
" id="DejaVuSans-31" transform="scale(0.015625)"/>
       </defs>
       <use xlink:href="#DejaVuSans-31"/>
       <use x="63.623047" xlink:href="#DejaVuSans-30"/>
      </g>
     </g>
    </g>
    <g id="xtick_4">
     <g id="line2d_4">
      <g>
       <use style="stroke:#000000;stroke-width:0.8;" x="181.233429" xlink:href="#m221df05ea0" y="668.16434"/>
      </g>
     </g>
     <g id="text_4">
      <!-- 15 -->
      <g transform="translate(174.870929 682.762778)scale(0.1 -0.1)">
       <use xlink:href="#DejaVuSans-31"/>
       <use x="63.623047" xlink:href="#DejaVuSans-35"/>
      </g>
     </g>
    </g>
    <g id="xtick_5">
     <g id="line2d_5">
      <g>
       <use style="stroke:#000000;stroke-width:0.8;" x="232.669572" xlink:href="#m221df05ea0" y="668.16434"/>
      </g>
     </g>
     <g id="text_5">
      <!-- 20 -->
      <g transform="translate(226.307072 682.762778)scale(0.1 -0.1)">
       <defs>
        <path d="M 1228 531 
L 3431 531 
L 3431 0 
L 469 0 
L 469 531 
Q 828 903 1448 1529 
Q 2069 2156 2228 2338 
Q 2531 2678 2651 2914 
Q 2772 3150 2772 3378 
Q 2772 3750 2511 3984 
Q 2250 4219 1831 4219 
Q 1534 4219 1204 4116 
Q 875 4013 500 3803 
L 500 4441 
Q 881 4594 1212 4672 
Q 1544 4750 1819 4750 
Q 2544 4750 2975 4387 
Q 3406 4025 3406 3419 
Q 3406 3131 3298 2873 
Q 3191 2616 2906 2266 
Q 2828 2175 2409 1742 
Q 1991 1309 1228 531 
z
" id="DejaVuSans-32" transform="scale(0.015625)"/>
       </defs>
       <use xlink:href="#DejaVuSans-32"/>
       <use x="63.623047" xlink:href="#DejaVuSans-30"/>
      </g>
     </g>
    </g>
    <g id="xtick_6">
     <g id="line2d_6">
      <g>
       <use style="stroke:#000000;stroke-width:0.8;" x="284.105715" xlink:href="#m221df05ea0" y="668.16434"/>
      </g>
     </g>
     <g id="text_6">
      <!-- 25 -->
      <g transform="translate(277.743215 682.762778)scale(0.1 -0.1)">
       <use xlink:href="#DejaVuSans-32"/>
       <use x="63.623047" xlink:href="#DejaVuSans-35"/>
      </g>
     </g>
    </g>
    <g id="xtick_7">
     <g id="line2d_7">
      <g>
       <use style="stroke:#000000;stroke-width:0.8;" x="335.541858" xlink:href="#m221df05ea0" y="668.16434"/>
      </g>
     </g>
     <g id="text_7">
      <!-- 30 -->
      <g transform="translate(329.179358 682.762778)scale(0.1 -0.1)">
       <defs>
        <path d="M 2597 2516 
Q 3050 2419 3304 2112 
Q 3559 1806 3559 1356 
Q 3559 666 3084 287 
Q 2609 -91 1734 -91 
Q 1441 -91 1130 -33 
Q 819 25 488 141 
L 488 750 
Q 750 597 1062 519 
Q 1375 441 1716 441 
Q 2309 441 2620 675 
Q 2931 909 2931 1356 
Q 2931 1769 2642 2001 
Q 2353 2234 1838 2234 
L 1294 2234 
L 1294 2753 
L 1863 2753 
Q 2328 2753 2575 2939 
Q 2822 3125 2822 3475 
Q 2822 3834 2567 4026 
Q 2313 4219 1838 4219 
Q 1578 4219 1281 4162 
Q 984 4106 628 3988 
L 628 4550 
Q 988 4650 1302 4700 
Q 1616 4750 1894 4750 
Q 2613 4750 3031 4423 
Q 3450 4097 3450 3541 
Q 3450 3153 3228 2886 
Q 3006 2619 2597 2516 
z
" id="DejaVuSans-33" transform="scale(0.015625)"/>
       </defs>
       <use xlink:href="#DejaVuSans-33"/>
       <use x="63.623047" xlink:href="#DejaVuSans-30"/>
      </g>
     </g>
    </g>
    <g id="xtick_8">
     <g id="line2d_8">
      <g>
       <use style="stroke:#000000;stroke-width:0.8;" x="386.978" xlink:href="#m221df05ea0" y="668.16434"/>
      </g>
     </g>
     <g id="text_8">
      <!-- 35 -->
      <g transform="translate(380.6155 682.762778)scale(0.1 -0.1)">
       <use xlink:href="#DejaVuSans-33"/>
       <use x="63.623047" xlink:href="#DejaVuSans-35"/>
      </g>
     </g>
    </g>
    <g id="xtick_9">
     <g id="line2d_9">
      <g>
       <use style="stroke:#000000;stroke-width:0.8;" x="438.414143" xlink:href="#m221df05ea0" y="668.16434"/>
      </g>
     </g>
     <g id="text_9">
      <!-- 40 -->
      <g transform="translate(432.051643 682.762778)scale(0.1 -0.1)">
       <defs>
        <path d="M 2419 4116 
L 825 1625 
L 2419 1625 
L 2419 4116 
z
M 2253 4666 
L 3047 4666 
L 3047 1625 
L 3713 1625 
L 3713 1100 
L 3047 1100 
L 3047 0 
L 2419 0 
L 2419 1100 
L 313 1100 
L 313 1709 
L 2253 4666 
z
" id="DejaVuSans-34" transform="scale(0.015625)"/>
       </defs>
       <use xlink:href="#DejaVuSans-34"/>
       <use x="63.623047" xlink:href="#DejaVuSans-30"/>
      </g>
     </g>
    </g>
   </g>
   <g id="matplotlib.axis_2">
    <g id="ytick_1">
     <g id="line2d_10">
      <defs>
       <path d="M 0 0 
L -3.5 0 
" id="m87e73fce56" style="stroke:#000000;stroke-width:0.8;"/>
      </defs>
      <g>
       <use style="stroke:#000000;stroke-width:0.8;" x="26.925" xlink:href="#m87e73fce56" y="668.16434"/>
      </g>
     </g>
     <g id="text_10">
      <!-- 0 -->
      <g transform="translate(13.5625 671.963559)scale(0.1 -0.1)">
       <use xlink:href="#DejaVuSans-30"/>
      </g>
     </g>
    </g>
    <g id="ytick_2">
     <g id="line2d_11">
      <g>
       <use style="stroke:#000000;stroke-width:0.8;" x="26.925" xlink:href="#m87e73fce56" y="560.523304"/>
      </g>
     </g>
     <g id="text_11">
      <!-- 10 -->
      <g transform="translate(7.2 564.322523)scale(0.1 -0.1)">
       <use xlink:href="#DejaVuSans-31"/>
       <use x="63.623047" xlink:href="#DejaVuSans-30"/>
      </g>
     </g>
    </g>
    <g id="ytick_3">
     <g id="line2d_12">
      <g>
       <use style="stroke:#000000;stroke-width:0.8;" x="26.925" xlink:href="#m87e73fce56" y="452.882268"/>
      </g>
     </g>
     <g id="text_12">
      <!-- 20 -->
      <g transform="translate(7.2 456.681487)scale(0.1 -0.1)">
       <use xlink:href="#DejaVuSans-32"/>
       <use x="63.623047" xlink:href="#DejaVuSans-30"/>
      </g>
     </g>
    </g>
    <g id="ytick_4">
     <g id="line2d_13">
      <g>
       <use style="stroke:#000000;stroke-width:0.8;" x="26.925" xlink:href="#m87e73fce56" y="345.241233"/>
      </g>
     </g>
     <g id="text_13">
      <!-- 30 -->
      <g transform="translate(7.2 349.040451)scale(0.1 -0.1)">
       <use xlink:href="#DejaVuSans-33"/>
       <use x="63.623047" xlink:href="#DejaVuSans-30"/>
      </g>
     </g>
    </g>
    <g id="ytick_5">
     <g id="line2d_14">
      <g>
       <use style="stroke:#000000;stroke-width:0.8;" x="26.925" xlink:href="#m87e73fce56" y="237.600197"/>
      </g>
     </g>
     <g id="text_14">
      <!-- 40 -->
      <g transform="translate(7.2 241.399415)scale(0.1 -0.1)">
       <use xlink:href="#DejaVuSans-34"/>
       <use x="63.623047" xlink:href="#DejaVuSans-30"/>
      </g>
     </g>
    </g>
    <g id="ytick_6">
     <g id="line2d_15">
      <g>
       <use style="stroke:#000000;stroke-width:0.8;" x="26.925" xlink:href="#m87e73fce56" y="129.959161"/>
      </g>
     </g>
     <g id="text_15">
      <!-- 50 -->
      <g transform="translate(7.2 133.75838)scale(0.1 -0.1)">
       <use xlink:href="#DejaVuSans-35"/>
       <use x="63.623047" xlink:href="#DejaVuSans-30"/>
      </g>
     </g>
    </g>
    <g id="ytick_7">
     <g id="line2d_16">
      <g>
       <use style="stroke:#000000;stroke-width:0.8;" x="26.925" xlink:href="#m87e73fce56" y="22.318125"/>
      </g>
     </g>
     <g id="text_16">
      <!-- 60 -->
      <g transform="translate(7.2 26.117344)scale(0.1 -0.1)">
       <defs>
        <path d="M 2113 2584 
Q 1688 2584 1439 2293 
Q 1191 2003 1191 1497 
Q 1191 994 1439 701 
Q 1688 409 2113 409 
Q 2538 409 2786 701 
Q 3034 994 3034 1497 
Q 3034 2003 2786 2293 
Q 2538 2584 2113 2584 
z
M 3366 4563 
L 3366 3988 
Q 3128 4100 2886 4159 
Q 2644 4219 2406 4219 
Q 1781 4219 1451 3797 
Q 1122 3375 1075 2522 
Q 1259 2794 1537 2939 
Q 1816 3084 2150 3084 
Q 2853 3084 3261 2657 
Q 3669 2231 3669 1497 
Q 3669 778 3244 343 
Q 2819 -91 2113 -91 
Q 1303 -91 875 529 
Q 447 1150 447 2328 
Q 447 3434 972 4092 
Q 1497 4750 2381 4750 
Q 2619 4750 2861 4703 
Q 3103 4656 3366 4563 
z
" id="DejaVuSans-36" transform="scale(0.015625)"/>
       </defs>
       <use xlink:href="#DejaVuSans-36"/>
       <use x="63.623047" xlink:href="#DejaVuSans-30"/>
      </g>
     </g>
    </g>
   </g>
   <g id="line2d_17">
    <path clip-path="url(#pc46159295d)" d="M 242.155597 387.19122 
L 241.339706 386.472075 
L 240.532549 385.743307 
L 239.734125 385.004914 
L 238.944435 384.256897 
L 238.163479 383.499257 
L 237.391257 382.731992 
L 236.627768 381.955103 
L 235.873013 381.168591 
L 235.126991 380.372455 
L 234.389703 379.566694 
L 233.661149 378.75131 
L 233.661149 378.75131 
L 232.823509 377.998222 
L 231.858676 377.482703 
L 230.820501 377.237158 
L 229.766192 377.279308 
L 228.753696 377.610363 
L 227.839104 378.214118 
L 227.074012 379.057201 
L 226.473598 380.122885 
L 226.07647 381.345143 
L 225.912289 382.645693 
L 225.998532 383.940204 
L 226.337661 385.14521 
L 226.915269 386.184837 
L 226.915269 386.184837 
L 227.58319 387.067035 
L 228.271971 387.926247 
L 228.981612 388.762471 
L 229.712114 389.57571 
L 230.463476 390.365961 
L 231.235699 391.133226 
L 232.028782 391.877503 
L 232.842725 392.598794 
L 233.677529 393.297099 
L 234.533193 393.972416 
L 235.409717 394.624747 
L 235.409717 394.624747 
L 236.431824 395.174564 
L 237.59944 395.46663 
L 238.839406 395.489813 
L 240.072186 395.251001 
L 241.218197 394.772819 
L 242.20426 394.090308 
L 242.969353 393.247225 
L 243.498296 392.260297 
L 243.761907 391.185165 
L 243.747618 390.081278 
L 243.459583 389.009128 
L 242.917672 388.027576 
L 242.155597 387.19122 
" style="fill:none;stroke:#1f77b4;stroke-linecap:square;stroke-width:1.5;"/>
   </g>
   <g id="line2d_18">
    <path clip-path="url(#pc46159295d)" d="M 227.61412 371.701187 
L 226.817023 370.97232 
L 226.028776 370.234258 
L 225.249378 369.487003 
L 224.478829 368.730553 
L 223.717129 367.964909 
L 222.964279 367.190072 
L 222.220278 366.40604 
L 221.485127 365.612814 
L 220.758824 364.810394 
L 220.041372 363.99878 
L 219.332768 363.177971 
L 218.633014 362.347969 
L 217.942109 361.508772 
L 217.942109 361.508772 
L 217.134809 360.721079 
L 216.193181 360.16747 
L 215.169663 359.882496 
L 214.12051 359.886069 
L 213.103274 360.181538 
L 212.174232 360.754682 
L 211.385776 361.573857 
L 210.750596 362.625876 
L 210.309435 363.845622 
L 210.094713 365.155164 
L 210.127087 366.469898 
L 210.412378 367.705414 
L 210.93947 368.784232 
L 210.93947 368.784232 
L 211.556651 369.700024 
L 212.194969 370.593856 
L 212.854424 371.465728 
L 213.535015 372.31564 
L 214.236742 373.143592 
L 214.959607 373.949584 
L 215.703607 374.733616 
L 216.468745 375.495688 
L 217.255019 376.2358 
L 218.06243 376.953951 
L 218.890977 377.650143 
L 219.740661 378.324375 
L 220.611481 378.976646 
L 220.611481 378.976646 
L 221.63874 379.535811 
L 222.817466 379.843084 
L 224.073693 379.886284 
L 225.32671 379.670903 
L 226.495519 379.217957 
L 227.505412 378.560812 
L 228.293868 377.741637 
L 228.848197 376.773619 
L 229.137786 375.71135 
L 229.148642 374.613616 
L 228.883561 373.540657 
L 228.361171 372.551476 
L 227.61412 371.701187 
" style="fill:none;stroke:#ff7f0e;stroke-linecap:square;stroke-width:1.5;"/>
   </g>
   <g id="line2d_19">
    <path clip-path="url(#pc46159295d)" d="M 211.300142 355.215161 
L 210.539806 354.46278 
L 209.78856 353.701954 
L 209.046404 352.932683 
L 208.313338 352.154968 
L 207.589362 351.368807 
L 206.874476 350.574202 
L 206.16868 349.771152 
L 205.471974 348.959657 
L 204.784358 348.139718 
L 204.105831 347.311333 
L 203.436395 346.474504 
L 202.776049 345.62923 
L 202.124793 344.775511 
L 201.482627 343.913348 
L 200.84955 343.042739 
L 200.225564 342.163686 
L 200.225564 342.163686 
L 199.475112 341.317468 
L 198.577276 340.697869 
L 197.581826 340.343138 
L 196.543214 340.277048 
L 195.518194 340.506792 
L 194.563343 341.021797 
L 193.732465 341.793701 
L 193.034375 342.814317 
L 192.513679 344.02058 
L 192.207783 345.335749 
L 192.143081 346.675385 
L 192.331453 347.954092 
L 192.767708 349.092207 
L 192.767708 349.092207 
L 193.297034 350.059202 
L 193.848071 351.006026 
L 194.420819 351.932681 
L 195.015279 352.839165 
L 195.631451 353.725478 
L 196.269333 354.591621 
L 196.928927 355.437594 
L 197.610233 356.263396 
L 198.31325 357.069028 
L 199.037978 357.85449 
L 199.784417 358.619781 
L 200.552568 359.364902 
L 201.342431 360.089853 
L 202.154004 360.794633 
L 202.987289 361.479243 
L 203.842286 362.143682 
L 203.842286 362.143682 
L 204.870689 362.731678 
L 206.061854 363.078766 
L 207.340798 363.170125 
L 208.625076 363.007985 
L 209.831432 362.609777 
L 210.882611 362.005281 
L 211.713489 361.233376 
L 212.31525 360.302252 
L 212.654611 359.264454 
L 212.714841 358.177514 
L 212.496049 357.10125 
L 212.014347 356.095054 
L 211.300142 355.215161 
" style="fill:none;stroke:#2ca02c;stroke-linecap:square;stroke-width:1.5;"/>
   </g>
   <g id="line2d_20">
    <path clip-path="url(#pc46159295d)" d="M 193.854011 335.430916 
L 193.111903 334.666749 
L 192.379016 333.894534 
L 191.65535 333.11427 
L 190.940906 332.325958 
L 190.235683 331.529597 
L 189.539682 330.725187 
L 188.852903 329.912728 
L 188.175344 329.092221 
L 187.507008 328.263665 
L 186.847893 327.427061 
L 186.197999 326.582408 
L 185.557327 325.729706 
L 184.925877 324.868955 
L 184.303648 324.000156 
L 183.69064 323.123308 
L 183.086855 322.238412 
L 182.49229 321.345467 
L 181.906947 320.444473 
L 181.906947 320.444473 
L 181.191135 319.566286 
L 180.320787 318.910327 
L 179.344008 318.516879 
L 178.314076 318.411853 
L 177.287141 318.604588 
L 176.319812 319.086562 
L 175.466573 319.831281 
L 174.733351 320.83357 
L 174.166902 322.031564 
L 173.807483 323.349235 
L 173.684831 324.702281 
L 173.814413 326.004791 
L 174.194608 327.175909 
L 174.194608 327.175909 
L 174.671116 328.171895 
L 175.16965 329.148657 
L 175.69021 330.106194 
L 176.232795 331.044507 
L 176.797406 331.963597 
L 177.384043 332.863461 
L 177.992705 333.744102 
L 178.623392 334.605518 
L 179.276105 335.447711 
L 179.950844 336.270679 
L 180.647608 337.074423 
L 181.366397 337.858942 
L 182.107213 338.624238 
L 182.870053 339.370309 
L 183.65492 340.097156 
L 184.461811 340.804779 
L 185.290729 341.493178 
L 186.141672 342.162352 
L 186.141672 342.162352 
L 187.17455 342.763799 
L 188.37592 343.130838 
L 189.670049 343.247298 
L 190.973391 343.113688 
L 192.201352 342.745496 
L 193.275228 342.170525 
L 194.128467 341.425806 
L 194.755141 340.516513 
L 195.120565 339.493977 
L 195.206574 338.414942 
L 195.011875 337.338884 
L 194.551273 336.325293 
L 193.854011 335.430916 
" style="fill:none;stroke:#d62728;stroke-linecap:square;stroke-width:1.5;"/>
   </g>
   <g id="patch_3">
    <path d="M 26.925 668.16434 
L 26.925 22.318125 
" style="fill:none;stroke:#000000;stroke-linecap:square;stroke-linejoin:miter;stroke-width:0.8;"/>
   </g>
   <g id="patch_4">
    <path d="M 438.414143 668.16434 
L 438.414143 22.318125 
" style="fill:none;stroke:#000000;stroke-linecap:square;stroke-linejoin:miter;stroke-width:0.8;"/>
   </g>
   <g id="patch_5">
    <path d="M 26.925 668.16434 
L 438.414143 668.16434 
" style="fill:none;stroke:#000000;stroke-linecap:square;stroke-linejoin:miter;stroke-width:0.8;"/>
   </g>
   <g id="patch_6">
    <path d="M 26.925 22.318125 
L 438.414143 22.318125 
" style="fill:none;stroke:#000000;stroke-linecap:square;stroke-linejoin:miter;stroke-width:0.8;"/>
   </g>
   <g id="text_17">
    <!-- Simulation output at time=2.50h -->
    <g transform="translate(133.425822 16.318125)scale(0.12 -0.12)">
     <defs>
      <path d="M 3425 4513 
L 3425 3897 
Q 3066 4069 2747 4153 
Q 2428 4238 2131 4238 
Q 1616 4238 1336 4038 
Q 1056 3838 1056 3469 
Q 1056 3159 1242 3001 
Q 1428 2844 1947 2747 
L 2328 2669 
Q 3034 2534 3370 2195 
Q 3706 1856 3706 1288 
Q 3706 609 3251 259 
Q 2797 -91 1919 -91 
Q 1588 -91 1214 -16 
Q 841 59 441 206 
L 441 856 
Q 825 641 1194 531 
Q 1563 422 1919 422 
Q 2459 422 2753 634 
Q 3047 847 3047 1241 
Q 3047 1584 2836 1778 
Q 2625 1972 2144 2069 
L 1759 2144 
Q 1053 2284 737 2584 
Q 422 2884 422 3419 
Q 422 4038 858 4394 
Q 1294 4750 2059 4750 
Q 2388 4750 2728 4690 
Q 3069 4631 3425 4513 
z
" id="DejaVuSans-53" transform="scale(0.015625)"/>
      <path d="M 603 3500 
L 1178 3500 
L 1178 0 
L 603 0 
L 603 3500 
z
M 603 4863 
L 1178 4863 
L 1178 4134 
L 603 4134 
L 603 4863 
z
" id="DejaVuSans-69" transform="scale(0.015625)"/>
      <path d="M 3328 2828 
Q 3544 3216 3844 3400 
Q 4144 3584 4550 3584 
Q 5097 3584 5394 3201 
Q 5691 2819 5691 2113 
L 5691 0 
L 5113 0 
L 5113 2094 
Q 5113 2597 4934 2840 
Q 4756 3084 4391 3084 
Q 3944 3084 3684 2787 
Q 3425 2491 3425 1978 
L 3425 0 
L 2847 0 
L 2847 2094 
Q 2847 2600 2669 2842 
Q 2491 3084 2119 3084 
Q 1678 3084 1418 2786 
Q 1159 2488 1159 1978 
L 1159 0 
L 581 0 
L 581 3500 
L 1159 3500 
L 1159 2956 
Q 1356 3278 1631 3431 
Q 1906 3584 2284 3584 
Q 2666 3584 2933 3390 
Q 3200 3197 3328 2828 
z
" id="DejaVuSans-6d" transform="scale(0.015625)"/>
      <path d="M 544 1381 
L 544 3500 
L 1119 3500 
L 1119 1403 
Q 1119 906 1312 657 
Q 1506 409 1894 409 
Q 2359 409 2629 706 
Q 2900 1003 2900 1516 
L 2900 3500 
L 3475 3500 
L 3475 0 
L 2900 0 
L 2900 538 
Q 2691 219 2414 64 
Q 2138 -91 1772 -91 
Q 1169 -91 856 284 
Q 544 659 544 1381 
z
M 1991 3584 
L 1991 3584 
z
" id="DejaVuSans-75" transform="scale(0.015625)"/>
      <path d="M 603 4863 
L 1178 4863 
L 1178 0 
L 603 0 
L 603 4863 
z
" id="DejaVuSans-6c" transform="scale(0.015625)"/>
      <path d="M 2194 1759 
Q 1497 1759 1228 1600 
Q 959 1441 959 1056 
Q 959 750 1161 570 
Q 1363 391 1709 391 
Q 2188 391 2477 730 
Q 2766 1069 2766 1631 
L 2766 1759 
L 2194 1759 
z
M 3341 1997 
L 3341 0 
L 2766 0 
L 2766 531 
Q 2569 213 2275 61 
Q 1981 -91 1556 -91 
Q 1019 -91 701 211 
Q 384 513 384 1019 
Q 384 1609 779 1909 
Q 1175 2209 1959 2209 
L 2766 2209 
L 2766 2266 
Q 2766 2663 2505 2880 
Q 2244 3097 1772 3097 
Q 1472 3097 1187 3025 
Q 903 2953 641 2809 
L 641 3341 
Q 956 3463 1253 3523 
Q 1550 3584 1831 3584 
Q 2591 3584 2966 3190 
Q 3341 2797 3341 1997 
z
" id="DejaVuSans-61" transform="scale(0.015625)"/>
      <path d="M 1172 4494 
L 1172 3500 
L 2356 3500 
L 2356 3053 
L 1172 3053 
L 1172 1153 
Q 1172 725 1289 603 
Q 1406 481 1766 481 
L 2356 481 
L 2356 0 
L 1766 0 
Q 1100 0 847 248 
Q 594 497 594 1153 
L 594 3053 
L 172 3053 
L 172 3500 
L 594 3500 
L 594 4494 
L 1172 4494 
z
" id="DejaVuSans-74" transform="scale(0.015625)"/>
      <path d="M 1959 3097 
Q 1497 3097 1228 2736 
Q 959 2375 959 1747 
Q 959 1119 1226 758 
Q 1494 397 1959 397 
Q 2419 397 2687 759 
Q 2956 1122 2956 1747 
Q 2956 2369 2687 2733 
Q 2419 3097 1959 3097 
z
M 1959 3584 
Q 2709 3584 3137 3096 
Q 3566 2609 3566 1747 
Q 3566 888 3137 398 
Q 2709 -91 1959 -91 
Q 1206 -91 779 398 
Q 353 888 353 1747 
Q 353 2609 779 3096 
Q 1206 3584 1959 3584 
z
" id="DejaVuSans-6f" transform="scale(0.015625)"/>
      <path d="M 3513 2113 
L 3513 0 
L 2938 0 
L 2938 2094 
Q 2938 2591 2744 2837 
Q 2550 3084 2163 3084 
Q 1697 3084 1428 2787 
Q 1159 2491 1159 1978 
L 1159 0 
L 581 0 
L 581 3500 
L 1159 3500 
L 1159 2956 
Q 1366 3272 1645 3428 
Q 1925 3584 2291 3584 
Q 2894 3584 3203 3211 
Q 3513 2838 3513 2113 
z
" id="DejaVuSans-6e" transform="scale(0.015625)"/>
      <path id="DejaVuSans-20" transform="scale(0.015625)"/>
      <path d="M 1159 525 
L 1159 -1331 
L 581 -1331 
L 581 3500 
L 1159 3500 
L 1159 2969 
Q 1341 3281 1617 3432 
Q 1894 3584 2278 3584 
Q 2916 3584 3314 3078 
Q 3713 2572 3713 1747 
Q 3713 922 3314 415 
Q 2916 -91 2278 -91 
Q 1894 -91 1617 61 
Q 1341 213 1159 525 
z
M 3116 1747 
Q 3116 2381 2855 2742 
Q 2594 3103 2138 3103 
Q 1681 3103 1420 2742 
Q 1159 2381 1159 1747 
Q 1159 1113 1420 752 
Q 1681 391 2138 391 
Q 2594 391 2855 752 
Q 3116 1113 3116 1747 
z
" id="DejaVuSans-70" transform="scale(0.015625)"/>
      <path d="M 3597 1894 
L 3597 1613 
L 953 1613 
Q 991 1019 1311 708 
Q 1631 397 2203 397 
Q 2534 397 2845 478 
Q 3156 559 3463 722 
L 3463 178 
Q 3153 47 2828 -22 
Q 2503 -91 2169 -91 
Q 1331 -91 842 396 
Q 353 884 353 1716 
Q 353 2575 817 3079 
Q 1281 3584 2069 3584 
Q 2775 3584 3186 3129 
Q 3597 2675 3597 1894 
z
M 3022 2063 
Q 3016 2534 2758 2815 
Q 2500 3097 2075 3097 
Q 1594 3097 1305 2825 
Q 1016 2553 972 2059 
L 3022 2063 
z
" id="DejaVuSans-65" transform="scale(0.015625)"/>
      <path d="M 678 2906 
L 4684 2906 
L 4684 2381 
L 678 2381 
L 678 2906 
z
M 678 1631 
L 4684 1631 
L 4684 1100 
L 678 1100 
L 678 1631 
z
" id="DejaVuSans-3d" transform="scale(0.015625)"/>
      <path d="M 684 794 
L 1344 794 
L 1344 0 
L 684 0 
L 684 794 
z
" id="DejaVuSans-2e" transform="scale(0.015625)"/>
      <path d="M 3513 2113 
L 3513 0 
L 2938 0 
L 2938 2094 
Q 2938 2591 2744 2837 
Q 2550 3084 2163 3084 
Q 1697 3084 1428 2787 
Q 1159 2491 1159 1978 
L 1159 0 
L 581 0 
L 581 4863 
L 1159 4863 
L 1159 2956 
Q 1366 3272 1645 3428 
Q 1925 3584 2291 3584 
Q 2894 3584 3203 3211 
Q 3513 2838 3513 2113 
z
" id="DejaVuSans-68" transform="scale(0.015625)"/>
     </defs>
     <use xlink:href="#DejaVuSans-53"/>
     <use x="63.476562" xlink:href="#DejaVuSans-69"/>
     <use x="91.259766" xlink:href="#DejaVuSans-6d"/>
     <use x="188.671875" xlink:href="#DejaVuSans-75"/>
     <use x="252.050781" xlink:href="#DejaVuSans-6c"/>
     <use x="279.833984" xlink:href="#DejaVuSans-61"/>
     <use x="341.113281" xlink:href="#DejaVuSans-74"/>
     <use x="380.322266" xlink:href="#DejaVuSans-69"/>
     <use x="408.105469" xlink:href="#DejaVuSans-6f"/>
     <use x="469.287109" xlink:href="#DejaVuSans-6e"/>
     <use x="532.666016" xlink:href="#DejaVuSans-20"/>
     <use x="564.453125" xlink:href="#DejaVuSans-6f"/>
     <use x="625.634766" xlink:href="#DejaVuSans-75"/>
     <use x="689.013672" xlink:href="#DejaVuSans-74"/>
     <use x="728.222656" xlink:href="#DejaVuSans-70"/>
     <use x="791.699219" xlink:href="#DejaVuSans-75"/>
     <use x="855.078125" xlink:href="#DejaVuSans-74"/>
     <use x="894.287109" xlink:href="#DejaVuSans-20"/>
     <use x="926.074219" xlink:href="#DejaVuSans-61"/>
     <use x="987.353516" xlink:href="#DejaVuSans-74"/>
     <use x="1026.5625" xlink:href="#DejaVuSans-20"/>
     <use x="1058.349609" xlink:href="#DejaVuSans-74"/>
     <use x="1097.558594" xlink:href="#DejaVuSans-69"/>
     <use x="1125.341797" xlink:href="#DejaVuSans-6d"/>
     <use x="1222.753906" xlink:href="#DejaVuSans-65"/>
     <use x="1284.277344" xlink:href="#DejaVuSans-3d"/>
     <use x="1368.066406" xlink:href="#DejaVuSans-32"/>
     <use x="1431.689453" xlink:href="#DejaVuSans-2e"/>
     <use x="1463.476562" xlink:href="#DejaVuSans-35"/>
     <use x="1527.099609" xlink:href="#DejaVuSans-30"/>
     <use x="1590.722656" xlink:href="#DejaVuSans-68"/>
    </g>
   </g>
  </g>
 </g>
 <defs>
  <clipPath id="pc46159295d">
   <rect height="645.846215" width="411.489143" x="26.925" y="22.318125"/>
  </clipPath>
 </defs>
</svg>
